# Sample project-box enclosure
mtllib enclosure.mtl
o enclosure
v 60.000 0.000 30.000
v 59.659 0.000 32.588
v 58.660 0.000 35.000
v 57.071 0.000 37.071
v 55.000 0.000 38.660
v 52.588 0.000 39.659
v 50.000 0.000 40.000
v -50.000 0.000 40.000
v -52.588 0.000 39.659
v -55.000 0.000 38.660
v -57.071 0.000 37.071
v -58.660 0.000 35.000
v -59.659 0.000 32.588
v -60.000 0.000 30.000
v -60.000 0.000 -30.000
v -59.659 0.000 -32.588
v -58.660 0.000 -35.000
v -57.071 0.000 -37.071
v -55.000 0.000 -38.660
v -52.588 0.000 -39.659
v -50.000 0.000 -40.000
v 50.000 0.000 -40.000
v 52.588 0.000 -39.659
v 55.000 0.000 -38.660
v 57.071 0.000 -37.071
v 58.660 0.000 -35.000
v 59.659 0.000 -32.588
v 60.000 0.000 -30.000
v 60.000 45.000 30.000
v 59.659 45.000 32.588
v 58.660 45.000 35.000
v 57.071 45.000 37.071
v 55.000 45.000 38.660
v 52.588 45.000 39.659
v 50.000 45.000 40.000
v -50.000 45.000 40.000
v -52.588 45.000 39.659
v -55.000 45.000 38.660
v -57.071 45.000 37.071
v -58.660 45.000 35.000
v -59.659 45.000 32.588
v -60.000 45.000 30.000
v -60.000 45.000 -30.000
v -59.659 45.000 -32.588
v -58.660 45.000 -35.000
v -57.071 45.000 -37.071
v -55.000 45.000 -38.660
v -52.588 45.000 -39.659
v -50.000 45.000 -40.000
v 50.000 45.000 -40.000
v 52.588 45.000 -39.659
v 55.000 45.000 -38.660
v 57.071 45.000 -37.071
v 58.660 45.000 -35.000
v 59.659 45.000 -32.588
v 60.000 45.000 -30.000
v 0.000 0.000 0.000
v 0.000 45.000 0.000
v 56.000 45.000 29.000
v 55.761 45.000 30.812
v 55.062 45.000 32.500
v 53.950 45.000 33.950
v 52.500 45.000 35.062
v 50.812 45.000 35.761
v 49.000 45.000 36.000
v -49.000 45.000 36.000
v -50.812 45.000 35.761
v -52.500 45.000 35.062
v -53.950 45.000 33.950
v -55.062 45.000 32.500
v -55.761 45.000 30.812
v -56.000 45.000 29.000
v -56.000 45.000 -29.000
v -55.761 45.000 -30.812
v -55.062 45.000 -32.500
v -53.950 45.000 -33.950
v -52.500 45.000 -35.062
v -50.812 45.000 -35.761
v -49.000 45.000 -36.000
v 49.000 45.000 -36.000
v 50.812 45.000 -35.761
v 52.500 45.000 -35.062
v 53.950 45.000 -33.950
v 55.062 45.000 -32.500
v 55.761 45.000 -30.812
v 56.000 45.000 -29.000
v 56.000 50.000 29.000
v 55.761 50.000 30.812
v 55.062 50.000 32.500
v 53.950 50.000 33.950
v 52.500 50.000 35.062
v 50.812 50.000 35.761
v 49.000 50.000 36.000
v -49.000 50.000 36.000
v -50.812 50.000 35.761
v -52.500 50.000 35.062
v -53.950 50.000 33.950
v -55.062 50.000 32.500
v -55.761 50.000 30.812
v -56.000 50.000 29.000
v -56.000 50.000 -29.000
v -55.761 50.000 -30.812
v -55.062 50.000 -32.500
v -53.950 50.000 -33.950
v -52.500 50.000 -35.062
v -50.812 50.000 -35.761
v -49.000 50.000 -36.000
v 49.000 50.000 -36.000
v 50.812 50.000 -35.761
v 52.500 50.000 -35.062
v 53.950 50.000 -33.950
v 55.062 50.000 -32.500
v 55.761 50.000 -30.812
v 56.000 50.000 -29.000
v 0.000 45.000 0.000
v 0.000 50.000 0.000
usemtl Body
f 29 30 2 1
f 57 1 2
f 58 30 29
f 30 31 3 2
f 57 2 3
f 58 31 30
f 31 32 4 3
f 57 3 4
f 58 32 31
f 32 33 5 4
f 57 4 5
f 58 33 32
f 33 34 6 5
f 57 5 6
f 58 34 33
f 34 35 7 6
f 57 6 7
f 58 35 34
f 35 36 8 7
f 57 7 8
f 58 36 35
f 36 37 9 8
f 57 8 9
f 58 37 36
f 37 38 10 9
f 57 9 10
f 58 38 37
f 38 39 11 10
f 57 10 11
f 58 39 38
f 39 40 12 11
f 57 11 12
f 58 40 39
f 40 41 13 12
f 57 12 13
f 58 41 40
f 41 42 14 13
f 57 13 14
f 58 42 41
f 42 43 15 14
f 57 14 15
f 58 43 42
f 43 44 16 15
f 57 15 16
f 58 44 43
f 44 45 17 16
f 57 16 17
f 58 45 44
f 45 46 18 17
f 57 17 18
f 58 46 45
f 46 47 19 18
f 57 18 19
f 58 47 46
f 47 48 20 19
f 57 19 20
f 58 48 47
f 48 49 21 20
f 57 20 21
f 58 49 48
f 49 50 22 21
f 57 21 22
f 58 50 49
f 50 51 23 22
f 57 22 23
f 58 51 50
f 51 52 24 23
f 57 23 24
f 58 52 51
f 52 53 25 24
f 57 24 25
f 58 53 52
f 53 54 26 25
f 57 25 26
f 58 54 53
f 54 55 27 26
f 57 26 27
f 58 55 54
f 55 56 28 27
f 57 27 28
f 58 56 55
f 56 29 1 28
f 57 28 1
f 58 29 56
usemtl Lid
f 87 88 60 59
f 115 59 60
f 116 88 87
f 88 89 61 60
f 115 60 61
f 116 89 88
f 89 90 62 61
f 115 61 62
f 116 90 89
f 90 91 63 62
f 115 62 63
f 116 91 90
f 91 92 64 63
f 115 63 64
f 116 92 91
f 92 93 65 64
f 115 64 65
f 116 93 92
f 93 94 66 65
f 115 65 66
f 116 94 93
f 94 95 67 66
f 115 66 67
f 116 95 94
f 95 96 68 67
f 115 67 68
f 116 96 95
f 96 97 69 68
f 115 68 69
f 116 97 96
f 97 98 70 69
f 115 69 70
f 116 98 97
f 98 99 71 70
f 115 70 71
f 116 99 98
f 99 100 72 71
f 115 71 72
f 116 100 99
f 100 101 73 72
f 115 72 73
f 116 101 100
f 101 102 74 73
f 115 73 74
f 116 102 101
f 102 103 75 74
f 115 74 75
f 116 103 102
f 103 104 76 75
f 115 75 76
f 116 104 103
f 104 105 77 76
f 115 76 77
f 116 105 104
f 105 106 78 77
f 115 77 78
f 116 106 105
f 106 107 79 78
f 115 78 79
f 116 107 106
f 107 108 80 79
f 115 79 80
f 116 108 107
f 108 109 81 80
f 115 80 81
f 116 109 108
f 109 110 82 81
f 115 81 82
f 116 110 109
f 110 111 83 82
f 115 82 83
f 116 111 110
f 111 112 84 83
f 115 83 84
f 116 112 111
f 112 113 85 84
f 115 84 85
f 116 113 112
f 113 114 86 85
f 115 85 86
f 116 114 113
f 114 87 59 86
f 115 86 59
f 116 87 114
